#!OML:ASF I:\Actors\actors\Patient Classification 2\Patient 1\Session 1\actor1.ASF
:FULLY-SPECIFIED
:DEGREES
430
root 0.0672087 18.4334 6.54019 -5.20546 1.28617 1.67408
lowerback 6.87401 0.726177 -2.44604
upperback -3.06131 0.675527 -0.844899
thorax -7.08933 0.422851 0.401127
lowerneck -11.6958 -2.28099 -0.588195
upperneck 17.1954 -2.79458 -1.19864
head 7.1869 -1.48868 -0.559337
rclavicle 2.43511e-015 1.98785e-015
rhumerus -20.4057 -3.19567 -46.128
rradius 103.4
rwrist -54.1978
rhand 8.98975 -60.2658
rfingers 7.12502
rthumb 34.1675 -87.0123
lclavicle 2.43511e-015 1.98785e-015
lhumerus -49.7945 6.42502 79.3234
lradius 44.7932
lwrist -5.97502
lhand -8.40538 -24.9482
lfingers 7.12502
lthumb 17.5187 4.28241
rfemur 0 0 0
rtibia 0
rfoot 0 0
rtoes 0
lfemur 2.7681 -0.423871 -18.3763
ltibia 24.8685
lfoot -23.0447 5.06784
ltoes -55.6051
431
root 0.0718847 18.4258 6.54379 -5.3548 1.32439 2.04557
lowerback 6.93207 0.657414 -2.82211
upperback -3.03687 0.538269 -0.944943
thorax -7.09736 0.370144 0.52463
lowerneck -11.7486 -2.2464 -0.503967
upperneck 17.3417 -2.73905 -1.32475
head 7.24077 -1.46839 -0.611067
rclavicle -1.39149e-015 1.92821e-014
rhumerus -20.3624 -3.3296 -46.2277
rradius 103.35
rwrist -53.9377
rhand 9.10062 -60.1321
rfingers 7.12502
rthumb 34.2728 -86.8549
lclavicle -1.39149e-015 1.92821e-014
lhumerus -49.6626 6.45379 79.342
lradius 44.8235
lwrist -5.99515
lhand -8.43485 -25.0297
lfingers 7.12502
lthumb 17.4904 4.2035
rfemur 0 0 0
rtibia 0
rfoot 0 0
rtoes 0
lfemur 3.01705 -0.406331 -18.7992
ltibia 24.7413
lfoot -22.9979 5.07413
ltoes -55.6008
432
root 0.0776825 18.419 6.55134 -5.50805 1.2266 2.30434
lowerback 6.94195 0.630656 -3.05161
upperback -3.01404 0.473864 -1.03639
thorax -7.07895 0.346356 0.565976
lowerneck -11.7419 -2.21592 -0.430721
upperneck 17.4444 -2.70237 -1.37317
head 7.27133 -1.45071 -0.636342
rclavicle 7.72775e-015 -1.35174e-014
rhumerus -20.3725 -3.4016 -46.3213
rradius 103.327
rwrist -53.8619
rhand 9.03641 -59.8978
rfingers 7.12502
rthumb 34.2118 -86.6342
lclavicle 7.72775e-015 -1.35174e-014
lhumerus -49.5517 6.42495 79.3552
lradius 44.8808
lwrist -5.92976
lhand -8.38053 -25.0827
lfingers 7.12502
lthumb 17.5427 4.14578
rfemur 0 0 0
rtibia 0
rfoot 0 0
rtoes 0
lfemur 3.28538 -0.382772 -19.122
ltibia 24.6292
lfoot -23.0379 5.15037
ltoes -55.5714
433
root 0.0822223 18.4138 6.55835 -5.63185 1.05296 2.51099
lowerback 6.96071 0.629112 -3.22768
upperback -3.02878 0.447593 -1.11973
thorax -7.10627 0.33984 0.580345
lowerneck -11.7277 -2.20017 -0.432628
upperneck 17.5619 -2.6904 -1.32111
head 7.30798 -1.44065 -0.61906
rclavicle 1.08835e-014 -7.15625e-015
rhumerus -20.4642 -3.41492 -46.4081
rradius 103.326
rwrist -53.8852
rhand 8.87485 -59.8666
rfingers 7.12502
rthumb 34.0584 -86.6374
lclavicle 1.08835e-014 -7.15625e-015
lhumerus -49.4914 6.26483 79.3977
lradius 44.9626
lwrist -5.73686
lhand -8.31403 -25.0731
lfingers 7.12502
lthumb 17.6067 4.14966
rfemur 0 0 0
rtibia 0
rfoot 0 0
rtoes 0
lfemur 3.52317 -0.361493 -19.3955
ltibia 24.5343
lfoot -23.1129 5.28553
ltoes -55.5095
434
root 0.0866319 18.4091 6.56625 -5.71467 0.879525 2.71274
lowerback 6.90553 0.634536 -3.39359
upperback -3.02651 0.436102 -1.19334
thorax -7.07317 0.339516 0.598203
lowerneck -11.7916 -2.19636 -0.481725
upperneck 17.6921 -2.68659 -1.26005
head 7.3635 -1.43679 -0.593044
rclavicle 1.9133e-015 2.18663e-015
rhumerus -20.7646 -3.45995 -46.4566
rradius 103.439
rwrist -53.7893
rhand 8.89403 -59.7955
rfingers 7.12502
rthumb 34.0766 -86.5622
lclavicle 1.9133e-015 2.18663e-015
lhumerus -49.4206 6.19531 79.4002
lradius 45.0791
lwrist -5.71754
lhand -8.26132 -25.1027
lfingers 7.12502
lthumb 17.6574 4.11556
rfemur 0 0 0
rtibia 0
rfoot 0 0
rtoes 0
lfemur 3.7175 -0.372737 -19.6761
ltibia 24.457
lfoot -23.177 5.48929
ltoes -55.462
